<svg xmlns="http://www.w3.org/2000/svg" width="1254" height="836" viewBox="0 0 1254 836">
<g>
<path d="M 529.00 413.60 C517.72,423.47 502.09,437.08 494.25,443.83 L 480.00 456.11 L 480.00 249.96 L 520.50 250.50 L 520.50 311.75 C520.50,345.44 520.75,373.00 521.06,373.00 C521.37,373.00 522.95,371.59 524.56,369.87 C526.18,368.15 544.83,350.71 566.00,331.12 C587.17,311.53 615.44,285.27 628.80,272.75 L 653.11 250.00 L 680.05 250.00 C694.87,250.00 707.00,250.16 707.00,250.36 C707.00,252.68 584.78,364.76 529.00,413.60 ZM 775.00 250.00 L 775.00 552.00 L 771.75 552.00 C768.79,551.99 766.93,550.23 750.75,532.04 L 733.00 512.09 L 733.00 286.00 L 708.89 286.00 L 709.20 281.63 C709.48,277.57 710.41,276.26 722.00,263.65 L 734.50 250.04 L 754.75 250.02 ZM 737.37 546.75 L 742.43 552.00 L 712.97 551.92 L 683.50 551.84 L 678.00 545.62 C674.97,542.19 654.72,519.84 632.98,495.94 C611.24,472.05 585.97,444.24 576.81,434.15 L 560.15 415.81 L 575.68 401.65 C584.22,393.87 591.50,387.42 591.86,387.33 C592.21,387.24 596.10,391.26 600.50,396.27 C604.90,401.28 620.66,418.68 635.52,434.94 C650.38,451.20 678.24,481.83 697.43,503.00 C716.61,524.17 734.59,543.86 737.37,546.75 ZM 521.00 449.91 L 521.00 552.00 L 480.00 552.00 L 480.00 485.18 L 489.64 476.84 C494.95,472.25 504.17,464.32 510.14,459.20 Z" fill="rgb(31,31,31)"/>
<path d="M 311.00 364.50 C311.00,365.70 309.50,366.00 303.50,366.00 C297.50,366.00 296.00,365.70 296.00,364.50 C296.00,363.30 297.50,363.00 303.50,363.00 C309.50,363.00 311.00,363.30 311.00,364.50 ZM 390.89 301.63 C390.27,302.38 389.16,303.00 388.44,303.00 C386.27,303.00 385.65,300.92 387.33,299.24 C388.63,297.94 389.17,297.90 390.46,298.97 C391.65,299.96 391.75,300.59 390.89,301.63 ZM 376.75 227.75 C377.04,228.63 375.79,229.00 372.50,229.00 C369.21,229.00 367.96,228.63 368.25,227.75 C368.49,227.04 370.32,226.50 372.50,226.50 C374.68,226.50 376.51,227.04 376.75,227.75 ZM 1183.00 92.50 C1184.06,93.78 1183.78,94.00 1181.12,94.00 C1179.01,94.00 1178.00,93.51 1178.00,92.50 C1178.00,91.68 1178.84,91.00 1179.88,91.00 C1180.91,91.00 1182.32,91.68 1183.00,92.50 ZM 351.00 501.50 C351.00,502.33 350.33,503.00 349.50,503.00 C348.67,503.00 348.00,502.33 348.00,501.50 C348.00,500.67 348.67,500.00 349.50,500.00 C350.33,500.00 351.00,500.67 351.00,501.50 ZM 867.00 501.50 C867.00,502.33 866.33,503.00 865.50,503.00 C864.67,503.00 864.00,502.33 864.00,501.50 C864.00,500.67 864.67,500.00 865.50,500.00 C866.33,500.00 867.00,500.67 867.00,501.50 ZM 547.00 547.50 C547.00,548.33 546.33,549.00 545.50,549.00 C544.67,549.00 544.00,548.33 544.00,547.50 C544.00,546.67 544.67,546.00 545.50,546.00 C546.33,546.00 547.00,546.67 547.00,547.50 ZM 723.00 658.50 C723.00,659.33 722.33,660.00 721.50,660.00 C720.67,660.00 720.00,659.33 720.00,658.50 C720.00,657.67 720.67,657.00 721.50,657.00 C722.33,657.00 723.00,657.67 723.00,658.50 ZM 932.00 301.50 C932.00,302.33 931.33,303.00 930.50,303.00 C929.67,303.00 929.00,302.33 929.00,301.50 C929.00,300.67 929.67,300.00 930.50,300.00 C931.33,300.00 932.00,300.67 932.00,301.50 ZM 377.00 743.50 C377.00,744.33 376.33,745.00 375.50,745.00 C374.67,745.00 374.00,744.33 374.00,743.50 C374.00,742.67 374.67,742.00 375.50,742.00 C376.33,742.00 377.00,742.67 377.00,743.50 ZM 527.00 743.50 C527.00,744.33 526.33,745.00 525.50,745.00 C524.67,745.00 524.00,744.33 524.00,743.50 C524.00,742.67 524.67,742.00 525.50,742.00 C526.33,742.00 527.00,742.67 527.00,743.50 ZM 743.00 756.50 C743.00,757.33 742.33,758.00 741.50,758.00 C740.67,758.00 740.00,757.33 740.00,756.50 C740.00,755.67 740.67,755.00 741.50,755.00 C742.33,755.00 743.00,755.67 743.00,756.50 ZM 671.00 830.50 C671.00,831.33 670.33,832.00 669.50,832.00 C668.67,832.00 668.00,831.33 668.00,830.50 C668.00,829.67 668.67,829.00 669.50,829.00 C670.33,829.00 671.00,829.67 671.00,830.50 ZM 18.00 547.50 C18.00,548.33 17.33,549.00 16.50,549.00 C15.68,549.00 15.00,548.33 15.00,547.50 C15.00,546.67 15.68,546.00 16.50,546.00 C17.33,546.00 18.00,546.67 18.00,547.50 ZM 645.00 177.50 C645.00,178.32 644.33,179.00 643.50,179.00 C642.67,179.00 642.00,178.32 642.00,177.50 C642.00,176.68 642.67,176.00 643.50,176.00 C644.33,176.00 645.00,176.68 645.00,177.50 ZM 83.00 351.50 C83.00,352.33 82.32,353.00 81.50,353.00 C80.68,353.00 80.00,352.33 80.00,351.50 C80.00,350.67 80.68,350.00 81.50,350.00 C82.32,350.00 83.00,350.67 83.00,351.50 ZM 227.00 390.50 C227.00,391.33 226.32,392.00 225.50,392.00 C224.68,392.00 224.00,391.33 224.00,390.50 C224.00,389.67 224.68,389.00 225.50,389.00 C226.32,389.00 227.00,389.67 227.00,390.50 ZM 227.00 488.50 C227.00,489.33 226.32,490.00 225.50,490.00 C224.68,490.00 224.00,489.33 224.00,488.50 C224.00,487.67 224.68,487.00 225.50,487.00 C226.32,487.00 227.00,487.67 227.00,488.50 ZM 736.00 83.50 C736.00,84.32 735.33,85.00 734.50,85.00 C733.67,85.00 733.00,84.32 733.00,83.50 C733.00,82.68 733.67,82.00 734.50,82.00 C735.33,82.00 736.00,82.68 736.00,83.50 ZM 991.00 125.50 C991.00,126.32 990.33,127.00 989.50,127.00 C988.67,127.00 988.00,126.32 988.00,125.50 C988.00,124.68 988.67,124.00 989.50,124.00 C990.33,124.00 991.00,124.68 991.00,125.50 ZM 782.00 155.50 C782.00,156.32 781.33,157.00 780.50,157.00 C779.67,157.00 779.00,156.32 779.00,155.50 C779.00,154.68 779.67,154.00 780.50,154.00 C781.33,154.00 782.00,154.68 782.00,155.50 ZM 96.00 808.50 C96.00,809.33 95.32,810.00 94.50,810.00 C93.68,810.00 93.00,809.33 93.00,808.50 C93.00,807.67 93.68,807.00 94.50,807.00 C95.32,807.00 96.00,807.67 96.00,808.50 ZM 253.00 190.50 C253.00,191.32 252.32,192.00 251.50,192.00 C250.68,192.00 250.00,191.32 250.00,190.50 C250.00,189.68 250.68,189.00 251.50,189.00 C252.32,189.00 253.00,189.68 253.00,190.50 ZM 1187.00 386.50 C1187.00,387.33 1186.32,388.00 1185.50,388.00 C1184.68,388.00 1184.00,387.33 1184.00,386.50 C1184.00,385.67 1184.68,385.00 1185.50,385.00 C1186.32,385.00 1187.00,385.67 1187.00,386.50 ZM 1076.00 510.50 C1076.00,511.33 1075.32,512.00 1074.50,512.00 C1073.68,512.00 1073.00,511.33 1073.00,510.50 C1073.00,509.67 1073.68,509.00 1074.50,509.00 C1075.32,509.00 1076.00,509.67 1076.00,510.50 ZM 1200.00 543.50 C1200.00,544.33 1199.32,545.00 1198.50,545.00 C1197.68,545.00 1197.00,544.33 1197.00,543.50 C1197.00,542.67 1197.68,542.00 1198.50,542.00 C1199.32,542.00 1200.00,542.67 1200.00,543.50 ZM 1239.00 582.50 C1239.00,583.33 1238.32,584.00 1237.50,584.00 C1236.68,584.00 1236.00,583.33 1236.00,582.50 C1236.00,581.67 1236.68,581.00 1237.50,581.00 C1238.32,581.00 1239.00,581.67 1239.00,582.50 ZM 1187.00 791.50 C1187.00,793.06 1185.82,793.48 1184.67,792.33 C1183.52,791.18 1183.94,790.00 1185.50,790.00 C1186.32,790.00 1187.00,790.67 1187.00,791.50 ZM 560.00 582.50 C560.00,584.06 558.82,584.48 557.67,583.33 C556.52,582.18 556.94,581.00 558.50,581.00 C559.33,581.00 560.00,581.67 560.00,582.50 ZM 638.00 423.50 C638.00,425.05 636.82,425.49 635.69,424.36 C634.89,423.56 635.80,422.00 637.06,422.00 C637.58,422.00 638.00,422.67 638.00,423.50 ZM 1042.77 743.81 C1042.99,744.47 1042.45,745.00 1041.58,745.00 C1040.71,745.00 1040.00,744.29 1040.00,743.42 C1040.00,741.65 1042.15,741.96 1042.77,743.81 ZM 57.00 488.42 C57.00,489.29 56.29,490.00 55.42,490.00 C53.65,490.00 53.96,487.85 55.81,487.23 C56.47,487.01 57.00,487.55 57.00,488.42 ZM 939.00 364.42 C939.00,365.29 938.29,366.00 937.42,366.00 C936.55,366.00 936.01,365.47 936.23,364.81 C936.85,362.96 939.00,362.65 939.00,364.42 ZM 167.77 66.19 C167.15,68.04 165.00,68.35 165.00,66.58 C165.00,65.71 165.71,65.00 166.58,65.00 C167.45,65.00 167.99,65.53 167.77,66.19 ZM 905.77 129.81 C905.99,130.47 905.45,131.00 904.58,131.00 C903.71,131.00 903.00,130.29 903.00,129.42 C903.00,127.65 905.15,127.96 905.77,129.81 ZM 611.77 203.19 C611.15,205.04 609.00,205.35 609.00,203.58 C609.00,202.71 609.71,202.00 610.58,202.00 C611.45,202.00 611.99,202.53 611.77,203.19 ZM 534.00 194.42 C534.00,195.29 533.29,196.00 532.42,196.00 C531.55,196.00 531.01,195.47 531.23,194.81 C531.85,192.96 534.00,192.65 534.00,194.42 ZM 814.00 432.50 C814.00,433.33 813.60,434.00 813.11,434.00 C812.62,434.00 811.95,433.33 811.64,432.50 C811.29,431.59 811.64,431.00 812.53,431.00 C813.34,431.00 814.00,431.67 814.00,432.50 ZM 599.36 57.50 C599.71,58.41 599.36,59.00 598.47,59.00 C597.66,59.00 597.00,58.33 597.00,57.50 C597.00,56.67 597.40,56.00 597.89,56.00 C598.38,56.00 599.05,56.67 599.36,57.50 ZM 971.00 223.50 C971.00,224.32 970.60,225.00 970.11,225.00 C969.62,225.00 968.95,224.32 968.64,223.50 C968.29,222.59 968.64,222.00 969.53,222.00 C970.34,222.00 971.00,222.68 971.00,223.50 ZM 1056.00 510.50 C1056.00,511.33 1055.55,512.00 1055.00,512.00 C1054.45,512.00 1054.00,511.33 1054.00,510.50 C1054.00,509.67 1054.45,509.00 1055.00,509.00 C1055.55,509.00 1056.00,509.67 1056.00,510.50 ZM 1206.00 560.50 C1206.00,561.33 1205.55,562.00 1205.00,562.00 C1204.45,562.00 1204.00,561.33 1204.00,560.50 C1204.00,559.67 1204.45,559.00 1205.00,559.00 C1205.55,559.00 1206.00,559.67 1206.00,560.50 ZM 1245.00 599.50 C1245.00,600.33 1244.55,601.00 1244.00,601.00 C1243.45,601.00 1243.00,600.33 1243.00,599.50 C1243.00,598.67 1243.45,598.00 1244.00,598.00 C1244.55,598.00 1245.00,598.67 1245.00,599.50 ZM 1180.00 821.50 C1180.00,822.33 1179.55,823.00 1179.00,823.00 C1178.45,823.00 1178.00,822.33 1178.00,821.50 C1178.00,820.67 1178.45,820.00 1179.00,820.00 C1179.55,820.00 1180.00,820.67 1180.00,821.50 ZM 252.00 325.50 C252.00,326.33 251.55,327.00 251.00,327.00 C250.45,327.00 250.00,326.33 250.00,325.50 C250.00,324.67 250.45,324.00 251.00,324.00 C251.55,324.00 252.00,324.67 252.00,325.50 ZM 174.00 573.50 C174.00,574.33 173.55,575.00 173.00,575.00 C172.45,575.00 172.00,574.33 172.00,573.50 C172.00,572.67 172.45,572.00 173.00,572.00 C173.55,572.00 174.00,572.67 174.00,573.50 ZM 37.00 621.50 C37.00,622.33 36.55,623.00 36.00,623.00 C35.45,623.00 35.00,622.33 35.00,621.50 C35.00,620.67 35.45,620.00 36.00,620.00 C36.55,620.00 37.00,620.67 37.00,621.50 ZM 37.00 645.50 C37.00,646.33 36.55,647.00 36.00,647.00 C35.45,647.00 35.00,646.33 35.00,645.50 C35.00,644.67 35.45,644.00 36.00,644.00 C36.55,644.00 37.00,644.67 37.00,645.50 ZM 207.00 27.50 C207.00,28.33 206.55,29.00 206.00,29.00 C205.45,29.00 205.00,28.33 205.00,27.50 C205.00,26.67 205.45,26.00 206.00,26.00 C206.55,26.00 207.00,26.67 207.00,27.50 ZM 207.00 177.50 C207.00,178.32 206.55,179.00 206.00,179.00 C205.45,179.00 205.00,178.32 205.00,177.50 C205.00,176.68 205.45,176.00 206.00,176.00 C206.55,176.00 207.00,176.68 207.00,177.50 ZM 1017.00 338.50 C1017.00,339.33 1016.55,340.00 1016.00,340.00 C1015.45,340.00 1015.00,339.33 1015.00,338.50 C1015.00,337.67 1015.45,337.00 1016.00,337.00 C1016.55,337.00 1017.00,337.67 1017.00,338.50 ZM 618.00 364.50 C618.00,365.33 617.55,366.00 617.00,366.00 C616.45,366.00 616.00,365.33 616.00,364.50 C616.00,363.67 616.45,363.00 617.00,363.00 C617.55,363.00 618.00,363.67 618.00,364.50 ZM 912.00 390.50 C912.00,391.33 911.55,392.00 911.00,392.00 C910.45,392.00 910.00,391.33 910.00,390.50 C910.00,389.67 910.45,389.00 911.00,389.00 C911.55,389.00 912.00,389.67 912.00,390.50 ZM 409.00 412.50 C409.00,413.33 408.55,414.00 408.00,414.00 C407.45,414.00 407.00,413.33 407.00,412.50 C407.00,411.67 407.45,411.00 408.00,411.00 C408.55,411.00 409.00,411.67 409.00,412.50 ZM 357.00 462.50 C357.00,463.33 356.55,464.00 356.00,464.00 C355.45,464.00 355.00,463.33 355.00,462.50 C355.00,461.67 355.45,461.00 356.00,461.00 C356.55,461.00 357.00,461.67 357.00,462.50 ZM 429.00 560.50 C429.00,561.33 428.55,562.00 428.00,562.00 C427.45,562.00 427.00,561.33 427.00,560.50 C427.00,559.67 427.45,559.00 428.00,559.00 C428.55,559.00 429.00,559.67 429.00,560.50 ZM 566.00 645.50 C566.00,646.33 565.55,647.00 565.00,647.00 C564.45,647.00 564.00,646.33 564.00,645.50 C564.00,644.67 564.45,644.00 565.00,644.00 C565.55,644.00 566.00,644.67 566.00,645.50 ZM 298.00 27.50 C298.00,28.33 297.55,29.00 297.00,29.00 C296.45,29.00 296.00,28.33 296.00,27.50 C296.00,26.67 296.45,26.00 297.00,26.00 C297.55,26.00 298.00,26.67 298.00,27.50 ZM 285.00 70.50 C285.00,71.32 284.55,72.00 284.00,72.00 C283.45,72.00 283.00,71.32 283.00,70.50 C283.00,69.68 283.45,69.00 284.00,69.00 C284.55,69.00 285.00,69.68 285.00,70.50 ZM 1023.00 92.50 C1023.00,93.32 1022.55,94.00 1022.00,94.00 C1021.45,94.00 1021.00,93.32 1021.00,92.50 C1021.00,91.68 1021.45,91.00 1022.00,91.00 C1022.55,91.00 1023.00,91.68 1023.00,92.50 ZM 429.00 142.50 C429.00,143.32 428.55,144.00 428.00,144.00 C427.45,144.00 427.00,143.32 427.00,142.50 C427.00,141.68 427.45,141.00 428.00,141.00 C428.55,141.00 429.00,141.68 429.00,142.50 ZM 997.00 142.50 C997.00,143.32 996.55,144.00 996.00,144.00 C995.45,144.00 995.00,143.32 995.00,142.50 C995.00,141.68 995.45,141.00 996.00,141.00 C996.55,141.00 997.00,141.68 997.00,142.50 ZM 605.00 177.50 C605.00,178.32 604.55,179.00 604.00,179.00 C603.45,179.00 603.00,178.32 603.00,177.50 C603.00,176.68 603.45,176.00 604.00,176.00 C604.55,176.00 605.00,176.68 605.00,177.50 ZM 899.00 203.50 C899.00,204.32 898.55,205.00 898.00,205.00 C897.45,205.00 897.00,204.32 897.00,203.50 C897.00,202.68 897.45,202.00 898.00,202.00 C898.55,202.00 899.00,202.68 899.00,203.50 ZM 154.81 560.92 C155.01,561.52 154.42,562.00 153.50,562.00 C152.58,562.00 151.99,561.52 152.19,560.92 C152.39,560.33 152.98,559.85 153.50,559.85 C154.02,559.85 154.61,560.33 154.81,560.92 ZM 1193.00 646.06 C1193.00,646.58 1192.55,647.00 1192.00,647.00 C1191.45,647.00 1191.00,646.30 1191.00,645.44 C1191.00,644.58 1191.45,644.16 1192.00,644.50 C1192.55,644.84 1193.00,645.54 1193.00,646.06 ZM 1167.00 770.06 C1167.00,770.58 1166.55,771.00 1166.00,771.00 C1165.45,771.00 1165.00,770.30 1165.00,769.44 C1165.00,768.58 1165.45,768.16 1166.00,768.50 C1166.55,768.84 1167.00,769.54 1167.00,770.06 ZM 703.00 586.44 C703.00,587.30 702.55,588.00 702.00,588.00 C701.45,588.00 701.00,587.58 701.00,587.06 C701.00,586.54 701.45,585.84 702.00,585.50 C702.55,585.16 703.00,585.58 703.00,586.44 ZM 1023.00 266.44 C1023.00,267.30 1022.55,268.00 1022.00,268.00 C1021.45,268.00 1021.00,267.58 1021.00,267.06 C1021.00,266.54 1021.45,265.84 1022.00,265.50 C1022.55,265.16 1023.00,265.58 1023.00,266.44 ZM 690.00 449.44 C690.00,450.30 689.55,451.00 689.00,451.00 C688.45,451.00 688.00,450.58 688.00,450.06 C688.00,449.54 688.45,448.84 689.00,448.50 C689.55,448.16 690.00,448.58 690.00,449.44 ZM 677.00 450.06 C677.00,450.58 676.55,451.00 676.00,451.00 C675.45,451.00 675.00,450.30 675.00,449.44 C675.00,448.58 675.45,448.16 676.00,448.50 C676.55,448.84 677.00,449.54 677.00,450.06 ZM 800.60 411.27 C800.94,411.60 801.02,412.44 800.79,413.14 C800.45,414.15 800.21,414.15 799.58,413.13 C798.75,411.78 799.59,410.25 800.60,411.27 ZM 558.60 248.27 C558.94,248.60 559.02,249.44 558.79,250.14 C558.45,251.15 558.21,251.15 557.58,250.13 C556.75,248.78 557.59,247.25 558.60,248.27 ZM 101.60 333.27 C101.94,333.60 102.02,334.44 101.79,335.14 C101.45,336.15 101.21,336.15 100.58,335.13 C99.75,333.78 100.59,332.25 101.60,333.27 ZM 186.60 542.27 C186.94,542.60 187.02,543.44 186.79,544.14 C186.45,545.15 186.21,545.15 185.58,544.13 C184.75,542.78 185.59,541.25 186.60,542.27 ZM 1107.60 385.27 C1107.94,385.60 1108.02,386.44 1107.79,387.14 C1107.45,388.15 1107.21,388.15 1106.58,387.13 C1105.75,385.78 1106.59,384.25 1107.60,385.27 Z" fill="rgb(255,255,255)"/>
<path d="M 0.00 0.00 L 1254.00 0.00 L 1254.00 836.00 L 0.00 836.00 ZM 529.00 413.60 C560.19,386.29 612.16,339.21 651.91,302.60 C642.05,311.81 635.00,318.61 635.00,318.96 C635.00,320.98 638.46,320.92 640.65,318.86 C641.94,317.65 642.78,316.45 642.52,316.19 C642.27,315.93 643.17,314.40 644.53,312.78 C645.90,311.16 646.76,309.42 646.45,308.92 C645.88,307.99 646.57,307.85 653.00,307.54 C658.02,307.31 661.00,306.10 661.00,304.31 C661.00,301.26 666.42,293.98 669.15,293.38 C671.06,292.95 671.95,291.99 672.37,289.88 C672.73,288.12 673.85,286.62 675.23,286.08 C677.77,285.08 686.43,276.71 686.62,275.06 C686.87,273.01 687.01,272.94 688.85,273.92 C691.14,275.14 693.00,273.55 693.00,270.37 C693.00,268.67 693.67,268.06 695.75,267.82 C698.47,267.50 699.00,266.09 697.89,262.07 C697.62,261.06 698.47,260.58 700.77,260.46 C704.40,260.26 705.05,259.88 705.37,257.69 C705.68,255.55 708.07,252.93 709.11,253.57 C709.60,253.87 710.00,252.74 710.00,251.06 C710.00,249.38 709.66,248.07 709.25,248.16 C708.84,248.25 707.80,248.01 706.94,247.62 C704.81,246.68 657.26,247.44 653.50,248.48 C650.78,249.23 642.58,255.03 640.76,257.50 C640.35,258.05 640.21,259.03 640.45,259.68 C640.97,261.10 639.14,262.68 636.75,262.86 C632.97,263.16 632.02,263.35 632.40,263.74 C632.82,264.15 629.07,268.63 623.23,274.71 C621.43,276.58 620.21,278.54 620.54,279.06 C620.86,279.59 619.43,280.00 617.28,280.00 C615.17,280.00 612.37,280.75 611.06,281.67 C609.74,282.59 608.99,282.82 609.39,282.17 C609.79,281.53 609.61,281.00 608.99,281.00 C608.36,281.00 608.12,281.79 608.43,282.79 C608.83,284.03 607.73,285.82 604.91,288.54 C602.66,290.72 600.40,293.54 599.91,294.81 C599.41,296.08 598.55,296.84 598.00,296.50 C597.45,296.16 597.00,296.51 597.00,297.29 C597.00,298.96 593.59,302.26 592.74,301.41 C591.75,300.41 588.00,302.05 588.00,303.48 C588.00,304.23 586.65,305.43 585.00,306.16 C583.35,306.89 581.93,308.17 581.85,308.99 C581.76,309.82 581.65,311.17 581.60,312.00 C581.54,312.83 580.94,313.56 580.25,313.62 C579.56,313.69 578.36,313.81 577.57,313.88 C576.78,313.94 575.84,314.94 575.47,316.09 C575.11,317.24 573.23,318.84 571.30,319.65 C568.13,320.97 567.83,321.43 568.19,324.48 C568.53,327.41 568.36,327.73 566.86,326.93 C565.02,325.94 562.08,326.64 561.88,328.11 C561.81,328.60 561.69,329.56 561.62,330.25 C561.56,330.94 560.02,332.15 558.21,332.95 C555.39,334.19 555.01,334.77 555.51,337.04 C556.13,339.88 553.77,343.06 552.53,341.05 C552.17,340.47 551.55,340.00 551.15,340.00 C550.15,340.00 542.85,348.83 542.63,350.31 C542.28,352.58 540.93,353.91 539.52,353.37 C537.46,352.58 527.96,361.72 528.73,363.74 C529.17,364.88 528.96,365.10 528.02,364.51 C527.16,363.98 526.93,364.08 527.36,364.78 C527.73,365.37 527.57,366.15 527.01,366.49 C526.45,366.84 525.72,366.43 525.39,365.58 C524.95,364.42 524.34,364.28 522.96,365.02 C521.38,365.87 521.08,365.55 520.75,362.43 C520.60,351.39 520.50,332.76 520.50,311.75 L 520.50 250.98 C520.72,251.06 520.88,251.15 520.99,251.25 C521.98,252.14 521.93,251.78 520.82,250.00 L 519.26 247.50 L 499.60 247.21 C483.35,246.96 479.69,247.17 478.47,248.39 C476.78,250.07 476.53,252.00 478.00,252.00 C478.66,252.00 478.98,286.37 478.93,353.25 C478.89,410.67 478.49,453.63 478.00,452.50 C477.27,450.81 477.13,450.99 477.07,453.67 C477.03,455.41 477.56,457.02 478.25,457.26 C478.94,457.49 481.00,457.27 482.84,456.77 C484.68,456.27 486.83,456.10 487.62,456.41 C488.52,456.75 489.40,456.09 489.94,454.66 C490.42,453.39 491.87,451.66 493.16,450.81 C497.82,447.75 502.28,442.89 502.39,440.75 C502.45,439.48 503.56,438.03 505.00,437.31 C506.38,436.63 507.55,435.18 507.61,434.10 C507.68,432.93 505.09,434.62 498.57,440.10 C506.99,432.81 519.53,421.89 529.00,413.60 ZM 762.98 554.96 C764.19,557.23 765.53,557.57 766.57,555.89 C767.04,555.12 767.51,555.20 768.11,556.14 C768.74,557.14 768.97,557.17 768.98,556.25 C768.99,555.54 770.40,554.94 772.25,554.86 C775.08,554.75 775.18,554.66 773.00,554.21 L 770.50 553.69 L 773.00 552.95 C775.26,552.27 775.16,552.19 772.00,552.10 C768.75,552.00 767.23,550.56 750.75,532.04 C766.93,550.23 768.79,551.99 771.75,552.00 L 775.00 552.00 L 775.00 251.48 C775.05,251.53 775.09,251.58 775.13,251.64 C775.99,252.73 775.96,254.53 776.33,257.50 C776.55,259.30 776.76,258.48 776.85,255.45 C776.93,252.67 777.56,249.79 778.25,249.05 C779.05,248.19 779.08,247.94 778.34,248.36 C777.69,248.72 777.00,248.51 776.80,247.89 C776.54,247.11 770.16,246.82 755.46,246.94 L 734.50 247.10 L 731.69 249.80 C729.35,252.04 728.99,252.16 729.57,250.50 C730.01,249.24 728.56,250.17 725.67,253.00 C723.14,255.48 721.05,258.01 721.03,258.63 C721.01,259.25 720.33,260.31 719.51,260.99 C718.69,261.68 717.55,263.98 716.97,266.10 C716.40,268.23 715.61,269.87 715.21,269.74 C714.82,269.61 714.36,269.95 714.19,270.50 C713.54,272.58 709.58,276.00 708.11,275.75 C706.18,275.44 705.01,280.50 706.22,283.92 C707.74,288.22 709.81,288.93 720.75,288.97 C729.18,288.99 731.00,289.27 731.00,290.50 C731.00,291.33 731.45,292.00 732.00,292.00 C732.55,292.00 733.00,290.65 733.00,289.00 L 733.00 512.09 L 732.97 403.29 C732.95,343.46 732.56,295.17 732.09,296.00 C730.48,298.87 730.00,306.63 730.02,329.50 C730.10,419.14 730.85,511.82 731.51,513.50 C731.94,514.60 733.44,516.74 734.84,518.26 C736.24,519.77 737.54,521.80 737.73,522.76 C738.48,526.56 738.65,527.05 739.56,527.93 C740.08,528.42 741.40,528.98 742.50,529.17 C743.60,529.35 744.74,530.40 745.04,531.50 C745.34,532.60 746.84,534.11 748.38,534.85 C749.91,535.59 751.63,537.50 752.18,539.10 C752.74,540.69 753.68,542.00 754.27,542.00 C756.08,542.00 758.90,545.11 758.35,546.52 C757.78,548.01 761.32,550.32 762.49,549.21 C762.91,548.82 762.94,549.50 762.57,550.71 C762.20,551.93 762.38,553.84 762.98,554.96 ZM 680.25 554.34 C682.47,555.24 686.00,555.03 686.00,554.00 C686.00,553.36 695.70,553.03 713.25,553.07 C729.40,553.11 739.69,553.49 738.50,554.00 C736.90,554.69 737.26,554.87 740.29,554.93 L 744.08 555.00 L 743.84 550.98 C743.58,546.56 740.22,541.73 736.00,539.70 C734.62,539.04 732.61,536.59 731.53,534.25 C730.44,531.91 729.09,529.99 728.53,529.97 C727.01,529.92 723.50,526.76 722.73,524.74 C722.36,523.77 721.71,523.06 721.28,523.15 C719.81,523.47 716.83,521.72 717.79,521.11 C719.41,520.08 717.24,516.00 715.07,516.00 C713.92,516.00 712.10,514.57 710.79,512.65 C709.23,510.36 707.85,509.39 706.46,509.61 C704.93,509.84 704.38,509.32 704.23,507.50 C704.11,506.05 701.85,502.92 698.65,499.78 C695.70,496.88 692.82,493.64 692.26,492.59 C691.70,491.54 690.39,490.62 689.35,490.54 C686.44,490.33 685.00,489.08 685.00,486.77 C685.00,484.14 682.26,481.00 679.97,481.00 C677.49,481.00 675.50,478.41 677.41,477.67 C679.34,476.93 678.82,471.51 676.81,471.51 C674.81,471.50 666.20,465.97 665.55,464.27 C665.20,463.37 665.45,463.16 666.26,463.66 C668.02,464.74 664.04,458.85 661.77,457.02 C660.74,456.18 659.77,454.60 659.61,453.50 C659.41,452.15 658.42,451.39 656.54,451.17 C654.54,450.94 653.46,450.03 652.66,447.92 C652.06,446.32 651.32,444.95 651.03,444.89 C650.74,444.83 649.38,444.72 648.00,444.64 C644.56,444.43 642.39,443.00 644.00,442.00 C645.70,440.95 644.32,437.24 641.95,436.48 C640.88,436.14 640.00,435.01 640.00,433.97 C640.00,432.30 636.31,429.28 635.01,429.89 C634.75,430.02 634.17,428.74 633.74,427.06 C633.21,425.04 632.32,424.00 631.09,424.00 C630.08,424.00 628.68,423.33 628.00,422.50 C627.32,421.67 627.13,421.00 627.58,421.00 C628.93,421.00 626.15,418.64 624.51,418.40 C623.68,418.28 623.00,418.61 623.00,419.15 C623.00,419.68 622.55,419.84 622.00,419.50 C621.45,419.16 621.00,417.64 621.00,416.13 C621.00,414.62 620.29,412.51 619.43,411.44 C618.56,410.37 618.16,410.10 618.53,410.82 C619.08,411.89 618.84,411.92 617.29,410.95 C614.70,409.33 610.85,403.58 611.21,401.88 C611.37,401.12 610.91,400.62 610.20,400.77 C608.53,401.11 605.88,398.49 606.23,396.85 C606.38,396.16 605.96,395.57 605.30,395.55 C603.66,395.48 602.08,393.78 599.60,389.39 C597.79,386.19 596.93,385.62 593.34,385.29 C591.04,385.09 588.88,385.38 588.53,385.96 C588.17,386.53 587.05,387.00 586.04,387.00 C584.91,387.00 583.81,388.11 583.19,389.87 C582.41,392.12 581.66,392.69 579.74,392.48 C576.36,392.11 575.20,393.03 574.69,396.52 C574.45,398.16 573.77,399.39 573.17,399.26 C572.57,399.13 570.90,400.58 569.45,402.47 C568.01,404.37 566.01,406.18 565.02,406.49 C564.03,406.81 562.97,408.00 562.68,409.13 C562.38,410.27 561.74,410.96 561.26,410.66 C559.90,409.82 554.58,414.50 555.39,415.82 C555.78,416.45 557.54,417.35 559.30,417.81 C561.73,418.45 562.43,419.13 562.21,420.67 C561.89,422.93 563.49,424.60 566.50,425.16 C568.49,425.52 568.63,425.85 568.88,430.33 C568.94,431.60 569.92,433.52 571.03,434.58 C573.56,436.96 575.58,439.11 579.76,443.82 C585.81,450.65 587.26,451.96 588.16,451.40 C588.65,451.10 588.99,451.22 588.91,451.68 C588.52,453.87 589.22,455.00 591.72,456.20 C593.22,456.91 594.98,458.59 595.65,459.92 C596.31,461.25 597.59,462.75 598.48,463.25 C599.38,463.75 600.51,465.21 601.00,466.50 C601.49,467.79 603.15,469.44 604.69,470.18 C606.24,470.92 607.56,472.08 607.62,472.76 C607.69,473.44 607.81,474.43 607.88,474.95 C607.94,475.47 609.20,476.48 610.67,477.20 C612.13,477.91 613.45,479.35 613.60,480.40 C613.95,482.90 615.98,484.08 618.04,482.98 C620.07,481.89 622.08,483.62 621.27,485.73 C620.91,486.69 622.63,488.99 626.08,492.17 C629.04,494.89 631.62,496.65 631.81,496.08 C631.99,495.52 622.13,484.05 609.70,470.34 C617.33,478.74 625.37,487.58 632.98,495.94 C640.54,504.26 647.93,512.39 654.47,519.60 C636.38,499.83 634.45,498.14 634.17,500.50 C633.99,502.05 634.43,503.66 635.17,504.13 C635.90,504.59 636.11,504.98 635.63,504.98 C635.15,504.99 635.33,505.70 636.04,506.55 C636.74,507.40 637.90,507.87 638.61,507.59 C639.41,507.29 640.39,508.44 641.16,510.58 C641.89,512.57 642.94,513.85 643.64,513.59 C644.91,513.10 647.39,515.48 647.58,517.39 C647.64,518.00 647.76,519.18 647.85,520.01 C647.93,520.84 649.01,521.97 650.25,522.51 C651.49,523.06 652.65,524.54 652.83,525.81 C653.17,528.24 653.92,528.75 658.00,529.34 C659.38,529.54 660.56,530.22 660.62,530.85 C660.69,531.48 660.81,532.46 660.88,533.02 C660.94,533.59 662.13,534.48 663.52,535.01 C664.90,535.53 666.48,537.14 667.03,538.58 C667.58,540.02 668.86,541.41 669.89,541.68 C670.92,541.95 672.26,543.27 672.87,544.60 C673.48,545.94 675.11,547.47 676.49,548.00 C678.22,548.66 679.00,549.70 679.00,551.39 C679.00,552.73 679.56,554.06 680.25,554.34 ZM 477.12 548.68 L 477.00 552.86 L 498.95 552.96 C519.82,553.06 520.95,552.97 521.95,551.09 C522.65,549.78 522.67,548.91 522.00,548.50 C521.45,548.16 521.00,548.81 521.00,549.94 L 521.00 452.15 C521.00,453.82 521.29,454.11 522.13,453.27 C523.37,452.03 522.53,445.44 521.00,444.50 C520.49,444.18 519.07,444.93 517.85,446.15 C516.44,447.56 516.06,448.52 516.80,448.77 C517.64,449.05 517.55,449.59 516.50,450.64 C515.68,451.46 514.58,451.86 514.04,451.53 C513.51,451.20 512.19,451.81 511.10,452.90 C510.02,453.98 507.98,455.62 506.57,456.55 C505.15,457.47 503.42,459.42 502.71,460.87 C501.95,462.41 500.73,463.38 499.76,463.22 C497.98,462.91 496.24,465.43 495.64,469.17 C495.43,470.50 494.66,471.40 493.85,471.26 C493.08,471.12 490.67,472.47 488.52,474.25 C486.36,476.03 483.83,477.35 482.90,477.20 C481.97,477.04 480.33,478.04 479.24,479.42 C477.62,481.48 477.27,483.47 477.28,490.71 L 477.29 499.50 L 477.97 493.00 C478.35,489.42 478.68,500.90 478.71,518.50 C478.74,536.10 478.42,549.15 478.00,547.50 C477.28,544.66 477.23,544.73 477.12,548.68 ZM 569.00 378.63 C569.00,379.70 572.93,378.78 574.04,377.45 C574.74,376.60 575.88,376.12 576.57,376.39 C577.97,376.93 581.34,373.68 580.38,372.71 C580.03,372.37 581.38,371.31 583.38,370.36 C585.37,369.41 587.00,368.28 587.00,367.86 C587.00,367.44 588.58,366.35 590.50,365.43 C592.42,364.52 594.00,363.11 594.00,362.31 C594.00,361.50 595.80,360.13 598.00,359.27 C601.78,357.78 602.74,356.17 602.05,352.50 C601.94,351.95 602.39,352.03 603.05,352.67 C604.89,354.48 609.00,352.22 609.00,349.41 C609.00,347.69 609.65,347.06 611.67,346.82 C613.62,346.59 614.61,345.69 615.34,343.50 C615.88,341.85 616.93,340.05 617.68,339.50 C618.42,338.95 619.22,337.06 619.44,335.29 C619.81,332.34 617.78,333.95 594.42,355.17 C580.44,367.87 569.00,378.42 569.00,378.63 ZM 509.00 431.60 C509.00,432.63 513.02,431.84 514.31,430.55 C515.11,429.75 516.06,429.40 516.43,429.77 C516.80,430.14 516.81,429.68 516.46,428.75 C515.96,427.45 516.76,426.68 519.90,425.42 C522.16,424.52 524.00,423.40 524.00,422.93 C524.00,421.30 528.39,418.00 530.57,418.00 C533.37,418.00 535.00,416.21 535.00,413.12 C535.00,412.64 536.34,411.69 537.97,411.01 C539.60,410.34 541.18,409.01 541.48,408.07 C541.78,407.12 543.47,405.71 545.23,404.93 C547.22,404.04 548.66,402.55 549.02,401.01 C549.34,399.60 550.44,398.35 551.54,398.14 C553.92,397.69 555.16,395.99 554.47,394.12 C553.74,392.13 555.98,389.86 558.04,390.51 C560.19,391.19 563.00,388.56 563.00,385.87 C563.00,384.78 563.38,384.12 563.85,384.41 C565.17,385.23 568.33,382.49 567.82,380.97 C567.53,380.08 564.09,382.55 557.94,388.07 C552.75,392.73 539.61,404.33 528.75,413.86 C517.89,423.39 509.00,431.37 509.00,431.60 ZM 311.00 364.50 C311.00,363.30 309.50,363.00 303.50,363.00 C297.50,363.00 296.00,363.30 296.00,364.50 C296.00,365.70 297.50,366.00 303.50,366.00 C309.50,366.00 311.00,365.70 311.00,364.50 ZM 622.37 331.79 C622.72,332.35 623.92,332.57 625.04,332.28 C626.16,331.99 626.83,331.50 626.52,331.19 C626.22,330.88 627.40,329.15 629.16,327.33 C630.92,325.52 632.06,323.72 631.68,323.35 C631.30,322.97 631.76,321.73 632.70,320.58 C633.64,319.44 631.56,321.26 628.08,324.64 C624.59,328.01 622.03,331.23 622.37,331.79 ZM 390.89 301.63 C391.75,300.59 391.65,299.96 390.46,298.97 C389.17,297.90 388.63,297.94 387.33,299.24 C385.65,300.92 386.27,303.00 388.44,303.00 C389.16,303.00 390.27,302.38 390.89,301.63 ZM 376.75 227.75 C376.51,227.04 374.68,226.50 372.50,226.50 C370.32,226.50 368.49,227.04 368.25,227.75 C367.96,228.63 369.21,229.00 372.50,229.00 C375.79,229.00 377.04,228.63 376.75,227.75 ZM 521.00 531.50 C521.00,534.32 521.39,535.88 522.00,535.50 C522.55,535.16 523.00,533.36 523.00,531.50 C523.00,529.64 522.55,527.84 522.00,527.50 C521.39,527.12 521.00,528.68 521.00,531.50 ZM 1183.00 92.50 C1182.32,91.68 1180.91,91.00 1179.88,91.00 C1178.84,91.00 1178.00,91.68 1178.00,92.50 C1178.00,93.51 1179.01,94.00 1181.12,94.00 C1183.78,94.00 1184.06,93.78 1183.00,92.50 ZM 351.00 501.50 C351.00,500.67 350.33,500.00 349.50,500.00 C348.67,500.00 348.00,500.67 348.00,501.50 C348.00,502.33 348.67,503.00 349.50,503.00 C350.33,503.00 351.00,502.33 351.00,501.50 ZM 867.00 501.50 C867.00,500.67 866.33,500.00 865.50,500.00 C864.67,500.00 864.00,500.67 864.00,501.50 C864.00,502.33 864.67,503.00 865.50,503.00 C866.33,503.00 867.00,502.33 867.00,501.50 ZM 547.00 547.50 C547.00,546.67 546.33,546.00 545.50,546.00 C544.67,546.00 544.00,546.67 544.00,547.50 C544.00,548.33 544.67,549.00 545.50,549.00 C546.33,549.00 547.00,548.33 547.00,547.50 ZM 723.00 658.50 C723.00,657.67 722.33,657.00 721.50,657.00 C720.67,657.00 720.00,657.67 720.00,658.50 C720.00,659.33 720.67,660.00 721.50,660.00 C722.33,660.00 723.00,659.33 723.00,658.50 ZM 932.00 301.50 C932.00,300.67 931.33,300.00 930.50,300.00 C929.67,300.00 929.00,300.67 929.00,301.50 C929.00,302.33 929.67,303.00 930.50,303.00 C931.33,303.00 932.00,302.33 932.00,301.50 ZM 377.00 743.50 C377.00,742.67 376.33,742.00 375.50,742.00 C374.67,742.00 374.00,742.67 374.00,743.50 C374.00,744.33 374.67,745.00 375.50,745.00 C376.33,745.00 377.00,744.33 377.00,743.50 ZM 527.00 743.50 C527.00,742.67 526.33,742.00 525.50,742.00 C524.67,742.00 524.00,742.67 524.00,743.50 C524.00,744.33 524.67,745.00 525.50,745.00 C526.33,745.00 527.00,744.33 527.00,743.50 ZM 743.00 756.50 C743.00,755.67 742.33,755.00 741.50,755.00 C740.67,755.00 740.00,755.67 740.00,756.50 C740.00,757.33 740.67,758.00 741.50,758.00 C742.33,758.00 743.00,757.33 743.00,756.50 ZM 671.00 830.50 C671.00,829.67 670.33,829.00 669.50,829.00 C668.67,829.00 668.00,829.67 668.00,830.50 C668.00,831.33 668.67,832.00 669.50,832.00 C670.33,832.00 671.00,831.33 671.00,830.50 ZM 18.00 547.50 C18.00,546.67 17.33,546.00 16.50,546.00 C15.68,546.00 15.00,546.67 15.00,547.50 C15.00,548.33 15.68,549.00 16.50,549.00 C17.33,549.00 18.00,548.33 18.00,547.50 ZM 645.00 177.50 C645.00,176.68 644.33,176.00 643.50,176.00 C642.67,176.00 642.00,176.68 642.00,177.50 C642.00,178.32 642.67,179.00 643.50,179.00 C644.33,179.00 645.00,178.32 645.00,177.50 ZM 83.00 351.50 C83.00,350.67 82.32,350.00 81.50,350.00 C80.68,350.00 80.00,350.67 80.00,351.50 C80.00,352.33 80.68,353.00 81.50,353.00 C82.32,353.00 83.00,352.33 83.00,351.50 ZM 227.00 390.50 C227.00,389.67 226.32,389.00 225.50,389.00 C224.68,389.00 224.00,389.67 224.00,390.50 C224.00,391.33 224.68,392.00 225.50,392.00 C226.32,392.00 227.00,391.33 227.00,390.50 ZM 227.00 488.50 C227.00,487.67 226.32,487.00 225.50,487.00 C224.68,487.00 224.00,487.67 224.00,488.50 C224.00,489.33 224.68,490.00 225.50,490.00 C226.32,490.00 227.00,489.33 227.00,488.50 ZM 736.00 83.50 C736.00,82.68 735.33,82.00 734.50,82.00 C733.67,82.00 733.00,82.68 733.00,83.50 C733.00,84.32 733.67,85.00 734.50,85.00 C735.33,85.00 736.00,84.32 736.00,83.50 ZM 991.00 125.50 C991.00,124.68 990.33,124.00 989.50,124.00 C988.67,124.00 988.00,124.68 988.00,125.50 C988.00,126.32 988.67,127.00 989.50,127.00 C990.33,127.00 991.00,126.32 991.00,125.50 ZM 782.00 155.50 C782.00,154.68 781.33,154.00 780.50,154.00 C779.67,154.00 779.00,154.68 779.00,155.50 C779.00,156.32 779.67,157.00 780.50,157.00 C781.33,157.00 782.00,156.32 782.00,155.50 ZM 96.00 808.50 C96.00,807.67 95.32,807.00 94.50,807.00 C93.68,807.00 93.00,807.67 93.00,808.50 C93.00,809.33 93.68,810.00 94.50,810.00 C95.32,810.00 96.00,809.33 96.00,808.50 ZM 253.00 190.50 C253.00,189.68 252.32,189.00 251.50,189.00 C250.68,189.00 250.00,189.68 250.00,190.50 C250.00,191.32 250.68,192.00 251.50,192.00 C252.32,192.00 253.00,191.32 253.00,190.50 ZM 1187.00 386.50 C1187.00,385.67 1186.32,385.00 1185.50,385.00 C1184.68,385.00 1184.00,385.67 1184.00,386.50 C1184.00,387.33 1184.68,388.00 1185.50,388.00 C1186.32,388.00 1187.00,387.33 1187.00,386.50 ZM 1076.00 510.50 C1076.00,509.67 1075.32,509.00 1074.50,509.00 C1073.68,509.00 1073.00,509.67 1073.00,510.50 C1073.00,511.33 1073.68,512.00 1074.50,512.00 C1075.32,512.00 1076.00,511.33 1076.00,510.50 ZM 1200.00 543.50 C1200.00,542.67 1199.32,542.00 1198.50,542.00 C1197.68,542.00 1197.00,542.67 1197.00,543.50 C1197.00,544.33 1197.68,545.00 1198.50,545.00 C1199.32,545.00 1200.00,544.33 1200.00,543.50 ZM 1239.00 582.50 C1239.00,581.67 1238.32,581.00 1237.50,581.00 C1236.68,581.00 1236.00,581.67 1236.00,582.50 C1236.00,583.33 1236.68,584.00 1237.50,584.00 C1238.32,584.00 1239.00,583.33 1239.00,582.50 ZM 1187.00 791.50 C1187.00,790.67 1186.32,790.00 1185.50,790.00 C1183.94,790.00 1183.52,791.18 1184.67,792.33 C1185.82,793.48 1187.00,793.06 1187.00,791.50 ZM 560.00 582.50 C560.00,581.67 559.33,581.00 558.50,581.00 C556.94,581.00 556.52,582.18 557.67,583.33 C558.82,584.48 560.00,584.06 560.00,582.50 ZM 638.00 423.50 C638.00,422.67 637.58,422.00 637.06,422.00 C635.80,422.00 634.89,423.56 635.69,424.36 C636.82,425.49 638.00,425.05 638.00,423.50 ZM 517.73 250.46 L 483.10 250.00 L 499.80 250.00 C508.90,250.00 514.55,250.13 517.73,250.46 ZM 1042.77 743.81 C1042.15,741.96 1040.00,741.65 1040.00,743.42 C1040.00,744.29 1040.71,745.00 1041.58,745.00 C1042.45,745.00 1042.99,744.47 1042.77,743.81 ZM 57.00 488.42 C57.00,487.55 56.47,487.01 55.81,487.23 C53.96,487.85 53.65,490.00 55.42,490.00 C56.29,490.00 57.00,489.29 57.00,488.42 ZM 939.00 364.42 C939.00,362.65 936.85,362.96 936.23,364.81 C936.01,365.47 936.55,366.00 937.42,366.00 C938.29,366.00 939.00,365.29 939.00,364.42 ZM 167.77 66.19 C167.99,65.53 167.45,65.00 166.58,65.00 C165.71,65.00 165.00,65.71 165.00,66.58 C165.00,68.35 167.15,68.04 167.77,66.19 ZM 905.77 129.81 C905.15,127.96 903.00,127.65 903.00,129.42 C903.00,130.29 903.71,131.00 904.58,131.00 C905.45,131.00 905.99,130.47 905.77,129.81 ZM 611.77 203.19 C611.99,202.53 611.45,202.00 610.58,202.00 C609.71,202.00 609.00,202.71 609.00,203.58 C609.00,205.35 611.15,205.04 611.77,203.19 ZM 534.00 194.42 C534.00,192.65 531.85,192.96 531.23,194.81 C531.01,195.47 531.55,196.00 532.42,196.00 C533.29,196.00 534.00,195.29 534.00,194.42 ZM 814.00 432.50 C814.00,431.67 813.34,431.00 812.53,431.00 C811.64,431.00 811.29,431.59 811.64,432.50 C811.95,433.33 812.62,434.00 813.11,434.00 C813.60,434.00 814.00,433.33 814.00,432.50 ZM 599.36 57.50 C599.05,56.67 598.38,56.00 597.89,56.00 C597.40,56.00 597.00,56.67 597.00,57.50 C597.00,58.33 597.66,59.00 598.47,59.00 C599.36,59.00 599.71,58.41 599.36,57.50 ZM 971.00 223.50 C971.00,222.68 970.34,222.00 969.53,222.00 C968.64,222.00 968.29,222.59 968.64,223.50 C968.95,224.32 969.62,225.00 970.11,225.00 C970.60,225.00 971.00,224.32 971.00,223.50 ZM 735.72 544.99 C730.22,539.08 714.29,521.61 697.43,503.00 C691.28,496.22 684.25,488.47 677.05,480.54 C692.68,497.69 707.86,514.35 716.63,524.00 ZM 1056.00 510.50 C1056.00,509.67 1055.55,509.00 1055.00,509.00 C1054.45,509.00 1054.00,509.67 1054.00,510.50 C1054.00,511.33 1054.45,512.00 1055.00,512.00 C1055.55,512.00 1056.00,511.33 1056.00,510.50 ZM 1206.00 560.50 C1206.00,559.67 1205.55,559.00 1205.00,559.00 C1204.45,559.00 1204.00,559.67 1204.00,560.50 C1204.00,561.33 1204.45,562.00 1205.00,562.00 C1205.55,562.00 1206.00,561.33 1206.00,560.50 ZM 1245.00 599.50 C1245.00,598.67 1244.55,598.00 1244.00,598.00 C1243.45,598.00 1243.00,598.67 1243.00,599.50 C1243.00,600.33 1243.45,601.00 1244.00,601.00 C1244.55,601.00 1245.00,600.33 1245.00,599.50 ZM 1180.00 821.50 C1180.00,820.67 1179.55,820.00 1179.00,820.00 C1178.45,820.00 1178.00,820.67 1178.00,821.50 C1178.00,822.33 1178.45,823.00 1179.00,823.00 C1179.55,823.00 1180.00,822.33 1180.00,821.50 ZM 252.00 325.50 C252.00,324.67 251.55,324.00 251.00,324.00 C250.45,324.00 250.00,324.67 250.00,325.50 C250.00,326.33 250.45,327.00 251.00,327.00 C251.55,327.00 252.00,326.33 252.00,325.50 ZM 174.00 573.50 C174.00,572.67 173.55,572.00 173.00,572.00 C172.45,572.00 172.00,572.67 172.00,573.50 C172.00,574.33 172.45,575.00 173.00,575.00 C173.55,575.00 174.00,574.33 174.00,573.50 ZM 37.00 621.50 C37.00,620.67 36.55,620.00 36.00,620.00 C35.45,620.00 35.00,620.67 35.00,621.50 C35.00,622.33 35.45,623.00 36.00,623.00 C36.55,623.00 37.00,622.33 37.00,621.50 ZM 37.00 645.50 C37.00,644.67 36.55,644.00 36.00,644.00 C35.45,644.00 35.00,644.67 35.00,645.50 C35.00,646.33 35.45,647.00 36.00,647.00 C36.55,647.00 37.00,646.33 37.00,645.50 ZM 207.00 27.50 C207.00,26.67 206.55,26.00 206.00,26.00 C205.45,26.00 205.00,26.67 205.00,27.50 C205.00,28.33 205.45,29.00 206.00,29.00 C206.55,29.00 207.00,28.33 207.00,27.50 ZM 207.00 177.50 C207.00,176.68 206.55,176.00 206.00,176.00 C205.45,176.00 205.00,176.68 205.00,177.50 C205.00,178.32 205.45,179.00 206.00,179.00 C206.55,179.00 207.00,178.32 207.00,177.50 ZM 1017.00 338.50 C1017.00,337.67 1016.55,337.00 1016.00,337.00 C1015.45,337.00 1015.00,337.67 1015.00,338.50 C1015.00,339.33 1015.45,340.00 1016.00,340.00 C1016.55,340.00 1017.00,339.33 1017.00,338.50 ZM 618.00 364.50 C618.00,363.67 617.55,363.00 617.00,363.00 C616.45,363.00 616.00,363.67 616.00,364.50 C616.00,365.33 616.45,366.00 617.00,366.00 C617.55,366.00 618.00,365.33 618.00,364.50 ZM 912.00 390.50 C912.00,389.67 911.55,389.00 911.00,389.00 C910.45,389.00 910.00,389.67 910.00,390.50 C910.00,391.33 910.45,392.00 911.00,392.00 C911.55,392.00 912.00,391.33 912.00,390.50 ZM 409.00 412.50 C409.00,411.67 408.55,411.00 408.00,411.00 C407.45,411.00 407.00,411.67 407.00,412.50 C407.00,413.33 407.45,414.00 408.00,414.00 C408.55,414.00 409.00,413.33 409.00,412.50 ZM 357.00 462.50 C357.00,461.67 356.55,461.00 356.00,461.00 C355.45,461.00 355.00,461.67 355.00,462.50 C355.00,463.33 355.45,464.00 356.00,464.00 C356.55,464.00 357.00,463.33 357.00,462.50 ZM 429.00 560.50 C429.00,559.67 428.55,559.00 428.00,559.00 C427.45,559.00 427.00,559.67 427.00,560.50 C427.00,561.33 427.45,562.00 428.00,562.00 C428.55,562.00 429.00,561.33 429.00,560.50 ZM 566.00 645.50 C566.00,644.67 565.55,644.00 565.00,644.00 C564.45,644.00 564.00,644.67 564.00,645.50 C564.00,646.33 564.45,647.00 565.00,647.00 C565.55,647.00 566.00,646.33 566.00,645.50 ZM 298.00 27.50 C298.00,26.67 297.55,26.00 297.00,26.00 C296.45,26.00 296.00,26.67 296.00,27.50 C296.00,28.33 296.45,29.00 297.00,29.00 C297.55,29.00 298.00,28.33 298.00,27.50 ZM 285.00 70.50 C285.00,69.68 284.55,69.00 284.00,69.00 C283.45,69.00 283.00,69.68 283.00,70.50 C283.00,71.32 283.45,72.00 284.00,72.00 C284.55,72.00 285.00,71.32 285.00,70.50 ZM 1023.00 92.50 C1023.00,91.68 1022.55,91.00 1022.00,91.00 C1021.45,91.00 1021.00,91.68 1021.00,92.50 C1021.00,93.32 1021.45,94.00 1022.00,94.00 C1022.55,94.00 1023.00,93.32 1023.00,92.50 ZM 429.00 142.50 C429.00,141.68 428.55,141.00 428.00,141.00 C427.45,141.00 427.00,141.68 427.00,142.50 C427.00,143.32 427.45,144.00 428.00,144.00 C428.55,144.00 429.00,143.32 429.00,142.50 ZM 997.00 142.50 C997.00,141.68 996.55,141.00 996.00,141.00 C995.45,141.00 995.00,141.68 995.00,142.50 C995.00,143.32 995.45,144.00 996.00,144.00 C996.55,144.00 997.00,143.32 997.00,142.50 ZM 605.00 177.50 C605.00,176.68 604.55,176.00 604.00,176.00 C603.45,176.00 603.00,176.68 603.00,177.50 C603.00,178.32 603.45,179.00 604.00,179.00 C604.55,179.00 605.00,178.32 605.00,177.50 ZM 899.00 203.50 C899.00,202.68 898.55,202.00 898.00,202.00 C897.45,202.00 897.00,202.68 897.00,203.50 C897.00,204.32 897.45,205.00 898.00,205.00 C898.55,205.00 899.00,204.32 899.00,203.50 ZM 154.81 560.92 C154.61,560.33 154.02,559.85 153.50,559.85 C152.98,559.85 152.39,560.33 152.19,560.92 C151.99,561.52 152.58,562.00 153.50,562.00 C154.42,562.00 155.01,561.52 154.81,560.92 ZM 1193.00 646.06 C1193.00,645.54 1192.55,644.84 1192.00,644.50 C1191.45,644.16 1191.00,644.58 1191.00,645.44 C1191.00,646.30 1191.45,647.00 1192.00,647.00 C1192.55,647.00 1193.00,646.58 1193.00,646.06 ZM 1167.00 770.06 C1167.00,769.54 1166.55,768.84 1166.00,768.50 C1165.45,768.16 1165.00,768.58 1165.00,769.44 C1165.00,770.30 1165.45,771.00 1166.00,771.00 C1166.55,771.00 1167.00,770.58 1167.00,770.06 ZM 677.00 450.06 C677.00,449.54 676.55,448.84 676.00,448.50 C675.45,448.16 675.00,448.58 675.00,449.44 C675.00,450.30 675.45,451.00 676.00,451.00 C676.55,451.00 677.00,450.58 677.00,450.06 ZM 1023.00 266.44 C1023.00,265.58 1022.55,265.16 1022.00,265.50 C1021.45,265.84 1021.00,266.54 1021.00,267.06 C1021.00,267.58 1021.45,268.00 1022.00,268.00 C1022.55,268.00 1023.00,267.30 1023.00,266.44 ZM 690.00 449.44 C690.00,448.58 689.55,448.16 689.00,448.50 C688.45,448.84 688.00,449.54 688.00,450.06 C688.00,450.58 688.45,451.00 689.00,451.00 C689.55,451.00 690.00,450.30 690.00,449.44 ZM 703.00 586.44 C703.00,585.58 702.55,585.16 702.00,585.50 C701.45,585.84 701.00,586.54 701.00,587.06 C701.00,587.58 701.45,588.00 702.00,588.00 C702.55,588.00 703.00,587.30 703.00,586.44 ZM 800.60 411.27 C799.59,410.25 798.75,411.78 799.58,413.13 C800.21,414.15 800.45,414.15 800.79,413.14 C801.02,412.44 800.94,411.60 800.60,411.27 ZM 558.60 248.27 C557.59,247.25 556.75,248.78 557.58,250.13 C558.21,251.15 558.45,251.15 558.79,250.14 C559.02,249.44 558.94,248.60 558.60,248.27 ZM 101.60 333.27 C100.59,332.25 99.75,333.78 100.58,335.13 C101.21,336.15 101.45,336.15 101.79,335.14 C102.02,334.44 101.94,333.60 101.60,333.27 ZM 186.60 542.27 C185.59,541.25 184.75,542.78 185.58,544.13 C186.21,545.15 186.45,545.15 186.79,544.14 C187.02,543.44 186.94,542.60 186.60,542.27 ZM 1107.60 385.27 C1106.59,384.25 1105.75,385.78 1106.58,387.13 C1107.21,388.15 1107.45,388.15 1107.79,387.14 C1108.02,386.44 1107.94,385.60 1107.60,385.27 ZM 510.38 459.00 L 510.14 459.20 C504.17,464.32 494.95,472.25 489.64,476.84 C499.14,468.63 505.76,462.91 510.38,459.00 ZM 617.37 415.01 C609.50,406.34 603.07,399.19 600.50,396.27 C599.26,394.86 598.06,393.53 596.97,392.35 C598.34,393.82 599.89,395.54 601.50,397.37 C603.75,399.93 609.58,406.41 617.37,415.01 ZM 521.04 372.94 C521.68,372.64 523.15,371.38 524.56,369.87 C522.95,371.59 521.37,373.00 521.06,373.00 C521.05,373.00 521.05,372.98 521.04,372.94 ZM 593.01 388.23 C592.37,387.63 591.96,387.30 591.86,387.33 C591.50,387.42 584.30,393.80 575.81,401.54 C584.30,393.81 591.50,387.42 591.86,387.32 C591.95,387.29 592.36,387.62 593.01,388.23 Z" fill="rgb(253,253,253)"/>
<path d="M 762.98 554.96 C762.38,553.84 762.20,551.93 762.57,550.71 C762.94,549.50 762.91,548.82 762.49,549.21 C761.32,550.32 757.78,548.01 758.35,546.52 C758.90,545.11 756.08,542.00 754.27,542.00 C753.68,542.00 752.74,540.69 752.18,539.10 C751.63,537.50 749.91,535.59 748.38,534.85 C746.84,534.11 745.34,532.60 745.04,531.50 C744.74,530.40 743.60,529.35 742.50,529.17 C741.40,528.98 740.08,528.42 739.56,527.93 C738.65,527.05 738.48,526.56 737.73,522.76 C737.54,521.80 736.24,519.77 734.84,518.26 C733.44,516.74 731.94,514.60 731.51,513.50 C730.85,511.82 730.10,419.14 730.02,329.50 C730.00,306.63 730.48,298.87 732.09,296.00 C732.56,295.17 732.95,343.46 732.97,403.29 L 733.00 512.09 L 750.75 532.04 C767.23,550.56 768.75,552.00 772.00,552.10 C775.16,552.19 775.26,552.27 773.00,552.95 L 770.50 553.69 L 773.00 554.21 C775.18,554.66 775.08,554.75 772.25,554.86 C770.40,554.94 768.99,555.54 768.98,556.25 C768.97,557.17 768.74,557.14 768.11,556.14 C767.51,555.20 767.04,555.12 766.57,555.89 C765.53,557.57 764.19,557.23 762.98,554.96 ZM 680.25 554.34 C679.56,554.06 679.00,552.73 679.00,551.39 C679.00,549.70 678.22,548.66 676.49,548.00 C675.11,547.47 673.48,545.94 672.87,544.60 C672.26,543.27 670.92,541.95 669.89,541.68 C668.86,541.41 667.58,540.02 667.03,538.58 C666.48,537.14 664.90,535.53 663.52,535.01 C662.13,534.48 660.94,533.59 660.88,533.02 C660.81,532.46 660.69,531.48 660.62,530.85 C660.56,530.22 659.38,529.54 658.00,529.34 C653.92,528.75 653.17,528.24 652.83,525.81 C652.65,524.54 651.49,523.06 650.25,522.51 C649.01,521.97 647.93,520.84 647.85,520.01 C647.76,519.18 647.64,518.00 647.58,517.39 C647.39,515.48 644.91,513.10 643.64,513.59 C642.94,513.85 641.89,512.57 641.16,510.58 C640.39,508.44 639.41,507.29 638.61,507.59 C637.90,507.87 636.74,507.40 636.04,506.55 C635.33,505.70 635.15,504.99 635.63,504.98 C636.11,504.98 635.90,504.59 635.17,504.13 C634.43,503.66 633.99,502.05 634.17,500.50 C634.47,497.98 636.66,500.09 658.50,524.00 C671.70,538.45 682.76,550.67 683.07,551.15 C683.38,551.64 696.69,551.91 712.64,551.77 L 741.64 551.50 L 716.63 524.00 C702.88,508.88 673.37,476.50 651.06,452.06 C628.75,427.61 606.45,403.01 601.50,397.37 C596.55,391.74 592.21,387.22 591.86,387.32 C591.50,387.42 584.23,393.87 575.69,401.65 L 560.17 415.79 L 572.73 429.65 C579.64,437.27 595.83,455.10 608.72,469.27 C621.61,483.44 632.00,495.51 631.81,496.08 C631.62,496.65 629.04,494.89 626.08,492.17 C622.63,488.99 620.91,486.69 621.27,485.73 C622.08,483.62 620.07,481.89 618.04,482.98 C615.98,484.08 613.95,482.90 613.60,480.40 C613.45,479.35 612.13,477.91 610.67,477.20 C609.20,476.48 607.94,475.47 607.88,474.95 C607.81,474.43 607.69,473.44 607.62,472.76 C607.56,472.08 606.24,470.92 604.69,470.18 C603.15,469.44 601.49,467.79 601.00,466.50 C600.51,465.21 599.38,463.75 598.48,463.25 C597.59,462.75 596.31,461.25 595.65,459.92 C594.98,458.59 593.22,456.91 591.72,456.20 C589.22,455.00 588.52,453.87 588.91,451.68 C588.99,451.22 588.65,451.10 588.16,451.40 C587.26,451.96 585.81,450.65 579.76,443.82 C575.58,439.11 573.56,436.96 571.03,434.58 C569.92,433.52 568.94,431.60 568.88,430.33 C568.63,425.85 568.49,425.52 566.50,425.16 C563.49,424.60 561.89,422.93 562.21,420.67 C562.43,419.13 561.73,418.45 559.30,417.81 C557.54,417.35 555.78,416.45 555.39,415.82 C554.58,414.50 559.90,409.82 561.26,410.66 C561.74,410.96 562.38,410.27 562.68,409.13 C562.97,408.00 564.03,406.81 565.02,406.49 C566.01,406.18 568.01,404.37 569.45,402.47 C570.90,400.58 572.57,399.13 573.17,399.26 C573.77,399.39 574.45,398.16 574.69,396.52 C575.20,393.03 576.36,392.11 579.74,392.48 C581.66,392.69 582.41,392.12 583.19,389.87 C583.81,388.11 584.91,387.00 586.04,387.00 C587.05,387.00 588.17,386.53 588.53,385.96 C588.88,385.38 591.04,385.09 593.34,385.29 C596.93,385.62 597.79,386.19 599.60,389.39 C602.08,393.78 603.66,395.48 605.30,395.55 C605.96,395.57 606.38,396.16 606.23,396.85 C605.88,398.49 608.53,401.11 610.20,400.77 C610.91,400.62 611.37,401.12 611.21,401.88 C610.85,403.58 614.70,409.33 617.29,410.95 C618.84,411.92 619.08,411.89 618.53,410.82 C618.16,410.10 618.56,410.37 619.43,411.44 C620.29,412.51 621.00,414.62 621.00,416.13 C621.00,417.64 621.45,419.16 622.00,419.50 C622.55,419.84 623.00,419.68 623.00,419.15 C623.00,418.61 623.68,418.28 624.51,418.40 C626.15,418.64 628.93,421.00 627.58,421.00 C627.13,421.00 627.32,421.67 628.00,422.50 C628.68,423.33 630.08,424.00 631.09,424.00 C632.32,424.00 633.21,425.04 633.74,427.06 C634.17,428.74 634.75,430.02 635.01,429.89 C636.31,429.28 640.00,432.30 640.00,433.97 C640.00,435.01 640.88,436.14 641.95,436.48 C644.32,437.24 645.70,440.95 644.00,442.00 C642.39,443.00 644.56,444.43 648.00,444.64 C649.38,444.72 650.74,444.83 651.03,444.89 C651.32,444.95 652.06,446.32 652.66,447.92 C653.46,450.03 654.54,450.94 656.54,451.17 C658.42,451.39 659.41,452.15 659.61,453.50 C659.77,454.60 660.74,456.18 661.77,457.02 C664.04,458.85 668.02,464.74 666.26,463.66 C665.45,463.16 665.20,463.37 665.55,464.27 C666.20,465.97 674.81,471.50 676.81,471.51 C678.82,471.51 679.34,476.93 677.41,477.67 C675.50,478.41 677.49,481.00 679.97,481.00 C682.26,481.00 685.00,484.14 685.00,486.77 C685.00,489.08 686.44,490.33 689.35,490.54 C690.39,490.62 691.70,491.54 692.26,492.59 C692.82,493.64 695.70,496.88 698.65,499.78 C701.85,502.92 704.11,506.05 704.23,507.50 C704.38,509.32 704.93,509.84 706.46,509.61 C707.85,509.39 709.23,510.36 710.79,512.65 C712.10,514.57 713.92,516.00 715.07,516.00 C717.24,516.00 719.41,520.08 717.79,521.11 C716.83,521.72 719.81,523.47 721.28,523.15 C721.71,523.06 722.36,523.77 722.73,524.74 C723.50,526.76 727.01,529.92 728.53,529.97 C729.09,529.99 730.44,531.91 731.53,534.25 C732.61,536.59 734.62,539.04 736.00,539.70 C740.22,541.73 743.58,546.56 743.84,550.98 L 744.08 555.00 L 740.29 554.93 C737.26,554.87 736.90,554.69 738.50,554.00 C739.69,553.49 729.40,553.11 713.25,553.07 C695.70,553.03 686.00,553.36 686.00,554.00 C686.00,555.03 682.47,555.24 680.25,554.34 ZM 477.12 548.68 C477.23,544.73 477.28,544.66 478.00,547.50 C478.42,549.15 478.74,536.10 478.71,518.50 C478.68,500.90 478.35,489.42 477.97,493.00 L 477.29 499.50 L 477.28 490.71 C477.27,483.47 477.62,481.48 479.24,479.42 C480.33,478.04 481.97,477.04 482.90,477.20 C483.83,477.35 486.36,476.03 488.52,474.25 C490.67,472.47 493.08,471.12 493.85,471.26 C494.66,471.40 495.43,470.50 495.64,469.17 C496.24,465.43 497.98,462.91 499.76,463.22 C500.73,463.38 501.95,462.41 502.71,460.87 C503.42,459.42 505.15,457.47 506.57,456.55 C507.98,455.62 510.02,453.98 511.10,452.90 C512.19,451.81 513.51,451.20 514.04,451.53 C514.58,451.86 515.68,451.46 516.50,450.64 C517.55,449.59 517.64,449.05 516.80,448.77 C516.06,448.52 516.44,447.56 517.85,446.15 C519.07,444.93 520.49,444.18 521.00,444.50 C522.53,445.44 523.37,452.03 522.13,453.27 C521.29,454.11 521.00,453.82 521.00,452.15 C521.00,449.81 519.99,450.60 489.64,476.84 L 480.00 485.18 L 480.00 518.59 L 480.00 552.00 L 500.50 552.00 C520.53,552.00 521.00,551.95 521.00,549.94 C521.00,548.81 521.45,548.16 522.00,548.50 C522.67,548.91 522.65,549.78 521.95,551.09 C520.95,552.97 519.82,553.06 498.95,552.96 L 477.00 552.86 L 477.12 548.68 ZM 521.00 531.50 C521.00,528.68 521.39,527.12 522.00,527.50 C522.55,527.84 523.00,529.64 523.00,531.50 C523.00,533.36 522.55,535.16 522.00,535.50 C521.39,535.88 521.00,534.32 521.00,531.50 ZM 478.25 457.26 C477.56,457.02 477.03,455.41 477.07,453.67 C477.13,450.99 477.27,450.81 478.00,452.50 C478.49,453.63 478.89,410.67 478.93,353.25 C478.98,286.37 478.66,252.00 478.00,252.00 C476.53,252.00 476.78,250.07 478.47,248.39 C479.69,247.17 483.35,246.96 499.60,247.21 L 519.26 247.50 L 520.82 250.00 C521.93,251.78 521.98,252.14 520.99,251.25 C519.98,250.34 514.23,250.00 499.80,250.00 L 480.00 250.00 L 480.00 353.05 L 480.00 456.11 L 493.86 444.12 C503.87,435.46 507.69,432.68 507.61,434.10 C507.55,435.18 506.38,436.63 505.00,437.31 C503.56,438.03 502.45,439.48 502.39,440.75 C502.28,442.89 497.82,447.75 493.16,450.81 C491.87,451.66 490.42,453.39 489.94,454.66 C489.40,456.09 488.52,456.75 487.62,456.41 C486.83,456.10 484.68,456.27 482.84,456.77 C481.00,457.27 478.94,457.49 478.25,457.26 ZM 509.00 431.60 C509.00,431.37 517.89,423.39 528.75,413.86 C539.61,404.33 552.75,392.73 557.94,388.07 C564.09,382.55 567.53,380.08 567.82,380.97 C568.33,382.49 565.17,385.23 563.85,384.41 C563.38,384.12 563.00,384.78 563.00,385.87 C563.00,388.56 560.19,391.19 558.04,390.51 C555.98,389.86 553.74,392.13 554.47,394.12 C555.16,395.99 553.92,397.69 551.54,398.14 C550.44,398.35 549.34,399.60 549.02,401.01 C548.66,402.55 547.22,404.04 545.23,404.93 C543.47,405.71 541.78,407.12 541.48,408.07 C541.18,409.01 539.60,410.34 537.97,411.01 C536.34,411.69 535.00,412.64 535.00,413.12 C535.00,416.21 533.37,418.00 530.57,418.00 C528.39,418.00 524.00,421.30 524.00,422.93 C524.00,423.40 522.16,424.52 519.90,425.42 C516.76,426.68 515.96,427.45 516.46,428.75 C516.81,429.68 516.80,430.14 516.43,429.77 C516.06,429.40 515.11,429.75 514.31,430.55 C513.02,431.84 509.00,432.63 509.00,431.60 ZM 569.00 378.63 C569.00,378.42 580.44,367.87 594.42,355.17 C617.78,333.95 619.81,332.34 619.44,335.29 C619.22,337.06 618.42,338.95 617.68,339.50 C616.93,340.05 615.88,341.85 615.34,343.50 C614.61,345.69 613.62,346.59 611.67,346.82 C609.65,347.06 609.00,347.69 609.00,349.41 C609.00,352.22 604.89,354.48 603.05,352.67 C602.39,352.03 601.94,351.95 602.05,352.50 C602.74,356.17 601.78,357.78 598.00,359.27 C595.80,360.13 594.00,361.50 594.00,362.31 C594.00,363.11 592.42,364.52 590.50,365.43 C588.58,366.35 587.00,367.44 587.00,367.86 C587.00,368.28 585.37,369.41 583.38,370.36 C581.38,371.31 580.03,372.37 580.38,372.71 C581.34,373.68 577.97,376.93 576.57,376.39 C575.88,376.12 574.74,376.60 574.04,377.45 C572.93,378.78 569.00,379.70 569.00,378.63 ZM 520.17 365.75 C520.26,361.73 520.51,360.17 520.73,362.25 C521.07,365.54 521.35,365.88 522.96,365.02 C524.34,364.28 524.95,364.42 525.39,365.58 C525.72,366.43 526.45,366.84 527.01,366.49 C527.57,366.15 527.73,365.37 527.36,364.78 C526.93,364.08 527.16,363.98 528.02,364.51 C528.96,365.10 529.17,364.88 528.73,363.74 C527.96,361.72 537.46,352.58 539.52,353.37 C540.93,353.91 542.28,352.58 542.63,350.31 C542.85,348.83 550.15,340.00 551.15,340.00 C551.55,340.00 552.17,340.47 552.53,341.05 C553.77,343.06 556.13,339.88 555.51,337.04 C555.01,334.77 555.39,334.19 558.21,332.95 C560.02,332.15 561.56,330.94 561.62,330.25 C561.69,329.56 561.81,328.60 561.88,328.11 C562.08,326.64 565.02,325.94 566.86,326.93 C568.36,327.73 568.53,327.41 568.19,324.48 C567.83,321.43 568.13,320.97 571.30,319.65 C573.23,318.84 575.11,317.24 575.47,316.09 C575.84,314.94 576.78,313.94 577.57,313.88 C578.36,313.81 579.56,313.69 580.25,313.62 C580.94,313.56 581.54,312.83 581.60,312.00 C581.65,311.17 581.76,309.82 581.85,308.99 C581.93,308.17 583.35,306.89 585.00,306.16 C586.65,305.43 588.00,304.23 588.00,303.48 C588.00,302.05 591.75,300.41 592.74,301.41 C593.59,302.26 597.00,298.96 597.00,297.29 C597.00,296.51 597.45,296.16 598.00,296.50 C598.55,296.84 599.41,296.08 599.91,294.81 C600.40,293.54 602.66,290.72 604.91,288.54 C607.73,285.82 608.83,284.03 608.43,282.79 C608.12,281.79 608.36,281.00 608.99,281.00 C609.61,281.00 609.79,281.53 609.39,282.17 C608.99,282.82 609.74,282.59 611.06,281.67 C612.37,280.75 615.17,280.00 617.28,280.00 C619.43,280.00 620.86,279.59 620.54,279.06 C620.21,278.54 621.43,276.58 623.23,274.71 C629.07,268.63 632.82,264.15 632.40,263.74 C632.02,263.35 632.97,263.16 636.75,262.86 C639.14,262.68 640.97,261.10 640.45,259.68 C640.21,259.03 640.35,258.05 640.76,257.50 C642.58,255.03 650.78,249.23 653.50,248.48 C657.26,247.44 704.81,246.68 706.94,247.62 C707.80,248.01 708.84,248.25 709.25,248.16 C709.66,248.07 710.00,249.38 710.00,251.06 C710.00,252.74 709.60,253.87 709.11,253.57 C708.07,252.93 705.68,255.55 705.37,257.69 C705.05,259.88 704.40,260.26 700.77,260.46 C698.47,260.58 697.62,261.06 697.89,262.07 C699.00,266.09 698.47,267.50 695.75,267.82 C693.67,268.06 693.00,268.67 693.00,270.37 C693.00,273.55 691.14,275.14 688.85,273.92 C687.01,272.94 686.87,273.01 686.62,275.06 C686.43,276.71 677.77,285.08 675.23,286.08 C673.85,286.62 672.73,288.12 672.37,289.88 C671.95,291.99 671.06,292.95 669.15,293.38 C666.42,293.98 661.00,301.26 661.00,304.31 C661.00,306.10 658.02,307.31 653.00,307.54 C646.57,307.85 645.88,307.99 646.45,308.92 C646.76,309.42 645.90,311.16 644.53,312.78 C643.17,314.40 642.27,315.93 642.52,316.19 C642.78,316.45 641.94,317.65 640.65,318.86 C638.46,320.92 635.00,320.98 635.00,318.96 C635.00,318.51 646.81,307.24 661.25,293.93 C686.56,270.57 707.00,251.12 707.00,250.36 C707.00,250.16 694.87,250.00 680.05,250.00 L 653.11 250.00 L 628.80 272.75 C615.44,285.27 587.17,311.53 566.00,331.12 C544.83,350.71 526.18,368.15 524.56,369.87 C522.95,371.59 521.26,373.00 520.81,373.00 C520.37,373.00 520.08,369.74 520.17,365.75 ZM 622.37 331.79 C622.03,331.23 624.59,328.01 628.08,324.64 C631.56,321.26 633.64,319.44 632.70,320.58 C631.76,321.73 631.30,322.97 631.68,323.35 C632.06,323.72 630.92,325.52 629.16,327.33 C627.40,329.15 626.22,330.88 626.52,331.19 C626.83,331.50 626.16,331.99 625.04,332.28 C623.92,332.57 622.72,332.35 622.37,331.79 ZM 731.00 290.50 C731.00,289.27 729.18,288.99 720.75,288.97 C709.81,288.93 707.74,288.22 706.22,283.92 C705.01,280.50 706.18,275.44 708.11,275.75 C709.58,276.00 713.54,272.58 714.19,270.50 C714.36,269.95 714.82,269.61 715.21,269.74 C715.61,269.87 716.40,268.23 716.97,266.10 C717.55,263.98 718.69,261.68 719.51,260.99 C720.33,260.31 721.01,259.25 721.03,258.63 C721.05,258.01 723.14,255.48 725.67,253.00 C728.56,250.17 730.01,249.24 729.57,250.50 C728.99,252.16 729.35,252.04 731.69,249.80 L 734.50 247.10 L 755.46 246.94 C770.16,246.82 776.54,247.11 776.80,247.89 C777.00,248.51 777.69,248.72 778.34,248.36 C779.08,247.94 779.05,248.19 778.25,249.05 C777.56,249.79 776.93,252.67 776.85,255.45 C776.76,258.48 776.55,259.30 776.33,257.50 C775.30,249.26 777.41,250.00 754.73,250.02 L 734.50 250.04 L 722.00 263.65 C710.41,276.26 709.48,277.57 709.20,281.63 L 708.89 286.00 L 720.95 286.00 L 733.00 286.00 L 733.00 289.00 C733.00,290.65 732.55,292.00 732.00,292.00 C731.45,292.00 731.00,291.33 731.00,290.50 Z" fill="rgb(251,251,251)"/>
</g>
</svg>