<?xml version="1.0" encoding="UTF-8"?>
<svg version="1.1" xmlns="http://www.w3.org/2000/svg" width="1536" height="1024">
<path d="M0 0 C506.88 0 1013.76 0 1536 0 C1536 337.92 1536 675.84 1536 1024 C1029.12 1024 522.24 1024 0 1024 C0 686.08 0 348.16 0 0 Z " fill="#FDFDFD" transform="translate(0,0)"/>
<path d="M0 0 C16.5 0 33 0 50 0 C51.77694293 1.77694293 51.14407953 4.3712455 51.15821838 6.77687073 C51.1680072 8.03195435 51.17779602 9.28703796 51.18788147 10.58015442 C51.19378643 11.98385582 51.19959683 13.38755762 51.20532227 14.79125977 C51.21489539 16.25937174 51.22490513 17.72748092 51.23532104 19.19558716 C51.26243751 23.19331654 51.28341044 27.19105782 51.30332303 31.18882871 C51.32514115 35.36223107 51.35255019 39.5355965 51.37937927 43.70896912 C51.42936278 51.61730115 51.47428054 59.52565361 51.51740164 67.4340257 C51.56672576 76.43511116 51.62166173 85.43615958 51.67708123 94.43720925 C51.7909881 112.95810514 51.89780809 131.47903595 52 150 C52.64673424 149.34933815 52.64673424 149.34933815 53.30653381 148.68553162 C55.27723486 146.7043811 57.2499259 144.72522351 59.22265625 142.74609375 C60.24002869 141.72243713 60.24002869 141.72243713 61.2779541 140.67810059 C65.14424596 136.80240455 69.06187643 133.06869615 73.24609375 129.53515625 C75.96810453 127.15263902 78.45929344 124.54917163 80.99609375 121.97265625 C83.58246151 119.42662171 86.3153528 117.07978443 89.06640625 114.71484375 C90.95494597 113.03995701 92.73155648 111.30052413 94.5 109.5 C97.44905233 106.50455808 100.53829845 103.74229133 103.71875 100.99609375 C108.56263106 96.75769782 113.26876954 92.36330975 118 88 C118.52787109 87.51337891 119.05574219 87.02675781 119.59960938 86.52539062 C123.40201872 83.01939321 127.2013591 79.51007946 131 76 C133.18725362 73.97889977 135.37472701 71.95803803 137.5625 69.9375 C138.10342285 69.43782715 138.6443457 68.9381543 139.20166016 68.42333984 C142.72881363 65.16726151 146.26836995 61.92511069 149.8125 58.6875 C155.28047565 53.68854823 160.68121096 48.61930325 166.07958984 43.54541016 C170.00783611 39.856771 173.95643586 36.19406057 177.9375 32.5625 C183.62773194 27.36909595 189.22937636 22.08471673 194.82788086 16.79272461 C199.58237924 12.30725704 204.39300023 7.9061248 209.3125 3.6015625 C211.09690831 2.09026577 211.09690831 2.09026577 212 0 C234.11 0 256.22 0 279 0 C277.27676421 3.44647158 276.41624126 4.80173123 273.7265625 7.25 C273.07236328 7.85263672 272.41816406 8.45527344 271.74414062 9.07617188 C271.04482422 9.71103516 270.34550781 10.34589844 269.625 11 C264.47975255 15.73843543 259.40721719 20.51501773 254.5 25.5 C250.89157151 29.15163258 247.21595065 32.64596722 243.30859375 35.9765625 C240.05441928 38.8287831 236.9070145 41.79103717 233.75 44.75 C227.20730383 50.87902162 220.61783245 56.95220965 214 63 C212.98018848 63.93589261 211.96066102 64.87209484 210.94140625 65.80859375 C206.37796722 70.0005732 201.80676226 74.18188697 197.1875 78.3125 C190.3633942 84.43893364 183.69241469 90.73061202 177 97 C168.7336582 104.74382736 160.45301475 112.45928364 152 120 C146.59572586 124.84370113 141.21637872 129.71213678 135.875 134.625 C132.00361736 138.1850179 128.09052085 141.68705868 124.1171875 145.1328125 C120.89111482 147.97794671 117.7326456 150.89632879 114.56689453 153.80810547 C109.74414163 158.24224498 104.87579411 162.62428734 100 167 C99.154375 167.763125 98.30875 168.52625 97.4375 169.3125 C91.28149478 174.86791934 85.0879643 180.37057411 78.77734375 185.75 C73.21877521 190.49079323 67.69062026 195.24086217 62.3125 200.1875 C58.81740111 203.39645044 55.2571616 206.46065837 51.5625 209.4375 C47.56776014 212.65943101 43.75445651 216.00655495 40 219.5 C35.39262527 223.78706802 30.62853199 227.80021671 25.72265625 231.74609375 C21.90640296 234.90531634 18.29697029 238.27456189 14.65625 241.6328125 C11.45921844 244.4819318 8.12013582 247.07833363 4.6796875 249.625 C2.87341797 250.91247672 2.87341797 250.91247672 2 253 C1.34 253 0.68 253 0 253 C0 169.51 0 86.02 0 0 Z " fill="#212121" transform="translate(587,306)"/>
<path d="M0 0 C16.17 0 32.34 0 49 0 C49 122.43 49 244.86 49 371 C41 371 41 371 38.70703125 369.0859375 C38.08183594 368.19132812 37.45664062 367.29671875 36.8125 366.375 C36.06613281 365.37210938 35.31976562 364.36921875 34.55078125 363.3359375 C34.14811035 362.79420898 33.74543945 362.25248047 33.33056641 361.69433594 C30.91565285 358.6191983 28.19356649 355.82999388 25.5 353 C20.91138609 348.13258923 16.54598971 343.18743519 12.471241 337.87306499 C10.07163718 334.90778343 10.07163718 334.90778343 6.98954391 332.57429981 C1.43665353 328.01289524 -2.0911091 323.65613642 -3.08956146 316.3807888 C-3.63545235 309.25830829 -3.48590475 302.14077853 -3.36230469 295.00463867 C-3.35221241 292.26379945 -3.36029925 289.52308255 -3.36761475 286.78224182 C-3.37387887 280.90117086 -3.33653377 275.02170892 -3.26876068 269.14104271 C-3.1708423 260.63909441 -3.13994422 252.13791666 -3.12490478 243.63546566 C-3.09870185 229.83816143 -3.01901025 216.0417131 -2.90527344 202.24487305 C-2.79496627 188.85005955 -2.71010397 175.4554793 -2.65917969 162.06030273 C-2.65602701 161.23333337 -2.65287432 160.406364 -2.64962611 159.55433496 C-2.63396459 155.40528286 -2.61880035 151.25622912 -2.60388327 147.10717428 C-2.4796717 112.73747502 -2.2651581 78.36888898 -2 44 C-11.57 44 -21.14 44 -31 44 C-31 31.76324635 -31 31.76324635 -26.42626953 27.15454102 C-25.76997559 26.54666748 -25.11368164 25.93879395 -24.4375 25.3125 C-23.0681921 23.9539493 -21.69972865 22.59454703 -20.33203125 21.234375 C-19.62127441 20.54537109 -18.91051758 19.85636719 -18.17822266 19.14648438 C-14.54193754 15.56318257 -11.09426062 11.80646149 -7.625 8.0625 C-6.36819689 6.71910705 -5.11047063 5.37657677 -3.8515625 4.03515625 C-3.32385254 3.4719165 -2.79614258 2.90867676 -2.25244141 2.32836914 C-1.51165305 1.54267139 -0.76357329 0.76357329 0 0 Z " fill="#20201F" transform="translate(900,306)"/>
<path d="M0 0 C2 0 2 0 3.41015625 1.3984375 C3.95542969 2.05070312 4.50070312 2.70296875 5.0625 3.375 C12.34746636 11.93671304 19.98387693 20.18595868 27.58837891 28.46337891 C48.31438807 51.02469016 48.31438807 51.02469016 53.25 56.75 C57.26563098 61.37319689 61.47398627 65.81571542 65.65942383 70.28442383 C71.95883867 77.01347772 78.22718203 83.77070473 84.25 90.75 C88.24598809 95.34915611 92.42951914 99.77217757 96.59350586 104.21850586 C105.17223904 113.38000558 113.61704904 122.6589975 122 132 C122.763125 132.845625 123.52625 133.69125 124.3125 134.5625 C127.65521436 138.26658888 130.9883715 141.97422317 134.25 145.75 C138.14047246 150.22222535 142.1999983 154.5350913 146.2434082 158.8684082 C149.02293872 161.85255693 151.77806229 164.84497319 154.4375 167.9375 C157.81095646 171.84936348 161.34398811 175.60602055 164.875 179.375 C173.52401566 188.61975035 173.52401566 188.61975035 177.1875 192.625 C177.86167969 193.35976563 178.53585937 194.09453125 179.23046875 194.8515625 C181.09547771 197.11592217 182.51648403 199.47403448 184 202 C174.95073449 202.30275823 165.90324009 202.5329471 156.84999466 202.67355824 C152.64474476 202.74108951 148.44298611 202.83246477 144.23974609 202.98071289 C140.17397258 203.12319593 136.11152857 203.19993219 132.0434494 203.23340416 C130.50099008 203.25721478 128.95869006 203.30371943 127.4176712 203.37449074 C120.73028964 203.66906532 114.68737501 203.8626092 109.41833496 199.16000366 C106.30954942 195.98851841 103.65330579 192.55666635 101 189 C99.84672703 187.65506493 98.68425382 186.31773737 97.5 185 C96.70335937 184.07960938 96.70335937 184.07960938 95.890625 183.140625 C91.86179213 178.5790539 87.69102352 174.1445302 83.55517578 169.68017578 C72.07827287 157.28079653 72.07827287 157.28079653 67.6875 152.1875 C63.71699392 147.60761169 59.5529159 143.20941882 55.41064453 138.78564453 C41.67116714 124.11096209 41.67116714 124.11096209 35.5625 117.0625 C31.01707405 111.82278465 26.26869775 106.76808857 21.55517578 101.68017578 C15.56316959 95.20655151 9.58736912 88.72427949 3.80859375 82.05859375 C0.71856057 78.54142855 -2.4536067 75.09874236 -5.609375 71.640625 C-7.51835975 69.53200785 -9.39453302 67.40534043 -11.25 65.25 C-15.28149032 60.60709882 -19.50972896 56.14818601 -23.71435547 51.6628418 C-28.54633148 46.50297706 -33.3018342 41.28232927 -38 36 C-34.4190918 31.61338746 -30.77745425 27.81083611 -26.46875 24.1484375 C-23.24168655 21.34007532 -20.12481567 18.42114908 -17 15.5 C-12.54901087 11.34507374 -8.07348129 7.2370111 -3.453125 3.26953125 C-2.25939375 2.22662089 -1.12086045 1.12086045 0 0 Z " fill="#202020" transform="translate(724,474)"/>
<path d="M0 0 C0 41.58 0 83.16 0 126 C-16.5 126 -33 126 -50 126 C-50.48130571 105.72722515 -50.48130571 105.72722515 -50.5859375 97.03320312 C-50.6574671 91.11789532 -50.74173057 85.20483249 -50.90527344 79.29125977 C-51.03641922 74.51884377 -51.1075607 69.74883601 -51.13852692 64.97475624 C-51.16056878 63.16088264 -51.20361732 61.34712967 -51.26876068 59.53429222 C-51.78262733 44.63078857 -51.78262733 44.63078857 -47.44421387 39.52383423 C-44.55387099 36.65373655 -41.34183121 34.32520236 -38 32 C-36.13595508 30.49129042 -34.2801093 28.97231563 -32.4375 27.4375 C-31.53902344 26.71433594 -30.64054688 25.99117187 -29.71484375 25.24609375 C-25.94495533 22.12712131 -22.37535549 18.80628153 -18.77734375 15.4921875 C-15.09797246 12.19058569 -11.27296412 9.09123204 -7.41015625 6.0078125 C-4.96084118 4.02967939 -4.96084118 4.02967939 -2.74609375 1.7421875 C-1 0 -1 0 0 0 Z " fill="#20201F" transform="translate(638,551)"/>
<path d="M0 0 C16.5 0 33 0 50 0 C50 49.83 50 99.66 50 151 C49.67 151 49.34 151 49 151 C49 101.83 49 52.66 49 2 C33.49 2 17.98 2 2 2 C2 84.83 2 167.66 2 253 C1.34 253 0.68 253 0 253 C0 169.51 0 86.02 0 0 Z " fill="#3E3E3E" transform="translate(587,306)"/>
<path d="M0 0 C0.33 0 0.66 0 1 0 C1 41.58 1 83.16 1 126 C-15.5 126 -32 126 -49 126 C-49 98.61 -49 71.22 -49 43 C-48.67 43 -48.34 43 -48 43 C-48 69.73 -48 96.46 -48 124 C-32.49 124 -16.98 124 -1 124 C-1.00523682 120.27920166 -1.01047363 116.55840332 -1.01586914 112.72485352 C-1.03240176 100.46330049 -1.04352073 88.20174765 -1.05181217 75.9401865 C-1.05697509 68.5023549 -1.06401771 61.06453383 -1.07543945 53.62670898 C-1.08538641 47.14618658 -1.09185346 40.66567181 -1.09408849 34.18514198 C-1.09539558 30.75169458 -1.0984813 27.318269 -1.10573006 23.88482857 C-1.11374416 20.05806179 -1.11399113 16.23131665 -1.11352539 12.40454102 C-1.11712067 11.25799545 -1.12071594 10.11144989 -1.12442017 8.93016052 C-1.1230455 7.89384491 -1.12167084 6.8575293 -1.12025452 5.78981018 C-1.12117631 4.88368768 -1.1220981 3.97756517 -1.12304783 3.04398441 C-1 1 -1 1 0 0 Z " fill="#2E2E2E" transform="translate(637,551)"/>
<path d="M0 0 C0.99 0.33 1.98 0.66 3 1 C1.35 2.65 -0.3 4.3 -2 6 C-2.99 5.67 -3.98 5.34 -5 5 C-3.35 3.35 -1.7 1.7 0 0 Z " fill="#383838" transform="translate(708,391)"/>
</svg>
